<mxfile host="app.diagrams.net" modified="2023-05-06T09:28:57.145Z" agent="Mozilla/5.0 (Windows NT 10.0; Win64; x64) AppleWebKit/537.36 (KHTML, like Gecko) Chrome/110.0.0.0 Safari/537.36" etag="YgUd2SL-ipwxw-TASNXj" version="21.2.9" type="device">
  <diagram name="Page-1" id="mZNGukQGQV_yJieD3DJJ">
    <mxGraphModel dx="892" dy="532" grid="1" gridSize="10" guides="1" tooltips="1" connect="1" arrows="1" fold="1" page="1" pageScale="1" pageWidth="827" pageHeight="1169" math="0" shadow="0">
      <root>
        <mxCell id="0" />
        <mxCell id="1" parent="0" />
        <mxCell id="GygckmwgSlFkmuyGbdj2-26" value="" style="ellipse;whiteSpace=wrap;html=1;aspect=fixed;" vertex="1" parent="1">
          <mxGeometry x="199" y="160" width="290" height="290" as="geometry" />
        </mxCell>
        <mxCell id="GygckmwgSlFkmuyGbdj2-2" value="1" style="ellipse;whiteSpace=wrap;html=1;aspect=fixed;fontStyle=1;fontSize=16;fillColor=#f8cecc;strokeColor=#b85450;" vertex="1" parent="1">
          <mxGeometry x="240" y="240" width="30" height="30" as="geometry" />
        </mxCell>
        <mxCell id="GygckmwgSlFkmuyGbdj2-3" value="10" style="ellipse;whiteSpace=wrap;html=1;aspect=fixed;fontStyle=1;fontSize=16;fillColor=#dae8fc;strokeColor=#6c8ebf;" vertex="1" parent="1">
          <mxGeometry x="420" y="360" width="30" height="30" as="geometry" />
        </mxCell>
        <mxCell id="GygckmwgSlFkmuyGbdj2-4" value="7" style="ellipse;whiteSpace=wrap;html=1;aspect=fixed;fontStyle=1;fontSize=16;fillColor=#d5e8d4;strokeColor=#82b366;" vertex="1" parent="1">
          <mxGeometry x="440" y="280" width="30" height="30" as="geometry" />
        </mxCell>
        <mxCell id="GygckmwgSlFkmuyGbdj2-5" value="6" style="ellipse;whiteSpace=wrap;html=1;aspect=fixed;fontStyle=1;fontSize=16;fillColor=#fff2cc;strokeColor=#d6b656;" vertex="1" parent="1">
          <mxGeometry x="370" y="300" width="30" height="30" as="geometry" />
        </mxCell>
        <mxCell id="GygckmwgSlFkmuyGbdj2-6" value="9" style="ellipse;whiteSpace=wrap;html=1;aspect=fixed;fontStyle=1;fontSize=16;fillColor=#dae8fc;strokeColor=#6c8ebf;" vertex="1" parent="1">
          <mxGeometry x="330" y="400" width="30" height="30" as="geometry" />
        </mxCell>
        <mxCell id="GygckmwgSlFkmuyGbdj2-7" value="8" style="ellipse;whiteSpace=wrap;html=1;aspect=fixed;fontStyle=1;fontSize=16;fillColor=#d5e8d4;strokeColor=#82b366;" vertex="1" parent="1">
          <mxGeometry x="250" y="380" width="30" height="30" as="geometry" />
        </mxCell>
        <mxCell id="GygckmwgSlFkmuyGbdj2-8" value="2" style="ellipse;whiteSpace=wrap;html=1;aspect=fixed;fontStyle=1;fontSize=16;fillColor=#f8cecc;strokeColor=#b85450;" vertex="1" parent="1">
          <mxGeometry x="310" y="220" width="30" height="30" as="geometry" />
        </mxCell>
        <mxCell id="GygckmwgSlFkmuyGbdj2-9" value="3" style="ellipse;whiteSpace=wrap;html=1;aspect=fixed;fontStyle=1;fontSize=16;fillColor=#f5f5f5;fontColor=#333333;strokeColor=#666666;" vertex="1" parent="1">
          <mxGeometry x="384" y="210" width="30" height="30" as="geometry" />
        </mxCell>
        <mxCell id="GygckmwgSlFkmuyGbdj2-10" value="4" style="ellipse;whiteSpace=wrap;html=1;aspect=fixed;fontStyle=1;fontSize=16;fillColor=#f5f5f5;fontColor=#333333;strokeColor=#666666;" vertex="1" parent="1">
          <mxGeometry x="220" y="320" width="30" height="30" as="geometry" />
        </mxCell>
        <mxCell id="GygckmwgSlFkmuyGbdj2-11" value="5" style="ellipse;whiteSpace=wrap;html=1;aspect=fixed;fontStyle=1;fontSize=16;fillColor=#fff2cc;strokeColor=#d6b656;" vertex="1" parent="1">
          <mxGeometry x="300" y="290" width="30" height="30" as="geometry" />
        </mxCell>
        <mxCell id="GygckmwgSlFkmuyGbdj2-15" value="&lt;b&gt;12V&lt;/b&gt;" style="text;html=1;strokeColor=none;fillColor=none;align=center;verticalAlign=middle;whiteSpace=wrap;rounded=0;" vertex="1" parent="1">
          <mxGeometry x="225" y="210" width="60" height="30" as="geometry" />
        </mxCell>
        <mxCell id="GygckmwgSlFkmuyGbdj2-16" value="&lt;b&gt;12V&lt;/b&gt;" style="text;html=1;strokeColor=none;fillColor=none;align=center;verticalAlign=middle;whiteSpace=wrap;rounded=0;" vertex="1" parent="1">
          <mxGeometry x="295" y="190" width="60" height="30" as="geometry" />
        </mxCell>
        <mxCell id="GygckmwgSlFkmuyGbdj2-17" value="&lt;b&gt;GND&lt;/b&gt;" style="text;html=1;strokeColor=none;fillColor=none;align=center;verticalAlign=middle;whiteSpace=wrap;rounded=0;" vertex="1" parent="1">
          <mxGeometry x="369" y="180" width="60" height="30" as="geometry" />
        </mxCell>
        <mxCell id="GygckmwgSlFkmuyGbdj2-18" value="&lt;b&gt;GND&lt;/b&gt;" style="text;html=1;strokeColor=none;fillColor=none;align=center;verticalAlign=middle;whiteSpace=wrap;rounded=0;" vertex="1" parent="1">
          <mxGeometry x="205" y="290" width="60" height="30" as="geometry" />
        </mxCell>
        <mxCell id="GygckmwgSlFkmuyGbdj2-19" value="&lt;b&gt;Fuse +&lt;/b&gt;" style="text;html=1;strokeColor=none;fillColor=none;align=center;verticalAlign=middle;whiteSpace=wrap;rounded=0;" vertex="1" parent="1">
          <mxGeometry x="285" y="260" width="60" height="30" as="geometry" />
        </mxCell>
        <mxCell id="GygckmwgSlFkmuyGbdj2-20" value="&lt;b&gt;Fuse -&lt;/b&gt;" style="text;html=1;strokeColor=none;fillColor=none;align=center;verticalAlign=middle;whiteSpace=wrap;rounded=0;" vertex="1" parent="1">
          <mxGeometry x="355" y="270" width="60" height="30" as="geometry" />
        </mxCell>
        <mxCell id="GygckmwgSlFkmuyGbdj2-21" value="&lt;b&gt;CAN H&lt;/b&gt;" style="text;html=1;strokeColor=none;fillColor=none;align=center;verticalAlign=middle;whiteSpace=wrap;rounded=0;" vertex="1" parent="1">
          <mxGeometry x="425" y="250" width="60" height="30" as="geometry" />
        </mxCell>
        <mxCell id="GygckmwgSlFkmuyGbdj2-22" value="&lt;b&gt;CAN H&lt;/b&gt;" style="text;html=1;strokeColor=none;fillColor=none;align=center;verticalAlign=middle;whiteSpace=wrap;rounded=0;" vertex="1" parent="1">
          <mxGeometry x="235" y="350" width="60" height="30" as="geometry" />
        </mxCell>
        <mxCell id="GygckmwgSlFkmuyGbdj2-23" value="&lt;b&gt;CAN L&lt;/b&gt;" style="text;html=1;strokeColor=none;fillColor=none;align=center;verticalAlign=middle;whiteSpace=wrap;rounded=0;" vertex="1" parent="1">
          <mxGeometry x="315" y="370" width="60" height="30" as="geometry" />
        </mxCell>
        <mxCell id="GygckmwgSlFkmuyGbdj2-24" value="&lt;b&gt;CAN L&lt;/b&gt;" style="text;html=1;strokeColor=none;fillColor=none;align=center;verticalAlign=middle;whiteSpace=wrap;rounded=0;" vertex="1" parent="1">
          <mxGeometry x="405" y="330" width="60" height="30" as="geometry" />
        </mxCell>
        <mxCell id="GygckmwgSlFkmuyGbdj2-27" value="&lt;b&gt;Connecteur male / côté soudure&lt;/b&gt;" style="text;html=1;strokeColor=none;fillColor=none;align=center;verticalAlign=middle;whiteSpace=wrap;rounded=0;" vertex="1" parent="1">
          <mxGeometry x="241.5" y="130" width="205" height="30" as="geometry" />
        </mxCell>
        <mxCell id="GygckmwgSlFkmuyGbdj2-28" value="" style="ellipse;whiteSpace=wrap;html=1;aspect=fixed;" vertex="1" parent="1">
          <mxGeometry x="200" y="510" width="290" height="290" as="geometry" />
        </mxCell>
        <mxCell id="GygckmwgSlFkmuyGbdj2-29" value="1" style="ellipse;whiteSpace=wrap;html=1;aspect=fixed;fontStyle=1;fontSize=16;fillColor=#f8cecc;strokeColor=#b85450;" vertex="1" parent="1">
          <mxGeometry x="410.5" y="585" width="30" height="30" as="geometry" />
        </mxCell>
        <mxCell id="GygckmwgSlFkmuyGbdj2-30" value="10" style="ellipse;whiteSpace=wrap;html=1;aspect=fixed;fontStyle=1;fontSize=16;fillColor=#dae8fc;strokeColor=#6c8ebf;" vertex="1" parent="1">
          <mxGeometry x="247" y="710" width="30" height="30" as="geometry" />
        </mxCell>
        <mxCell id="GygckmwgSlFkmuyGbdj2-31" value="7" style="ellipse;whiteSpace=wrap;html=1;aspect=fixed;fontStyle=1;fontSize=16;fillColor=#d5e8d4;strokeColor=#82b366;" vertex="1" parent="1">
          <mxGeometry x="222" y="630" width="30" height="30" as="geometry" />
        </mxCell>
        <mxCell id="GygckmwgSlFkmuyGbdj2-32" value="6" style="ellipse;whiteSpace=wrap;html=1;aspect=fixed;fontStyle=1;fontSize=16;fillColor=#fff2cc;strokeColor=#d6b656;" vertex="1" parent="1">
          <mxGeometry x="306" y="650" width="30" height="30" as="geometry" />
        </mxCell>
        <mxCell id="GygckmwgSlFkmuyGbdj2-33" value="9" style="ellipse;whiteSpace=wrap;html=1;aspect=fixed;fontStyle=1;fontSize=16;fillColor=#dae8fc;strokeColor=#6c8ebf;" vertex="1" parent="1">
          <mxGeometry x="331" y="750" width="30" height="30" as="geometry" />
        </mxCell>
        <mxCell id="GygckmwgSlFkmuyGbdj2-34" value="8" style="ellipse;whiteSpace=wrap;html=1;aspect=fixed;fontStyle=1;fontSize=16;fillColor=#d5e8d4;strokeColor=#82b366;" vertex="1" parent="1">
          <mxGeometry x="402" y="730" width="30" height="30" as="geometry" />
        </mxCell>
        <mxCell id="GygckmwgSlFkmuyGbdj2-35" value="2" style="ellipse;whiteSpace=wrap;html=1;aspect=fixed;fontStyle=1;fontSize=16;fillColor=#f8cecc;strokeColor=#b85450;" vertex="1" parent="1">
          <mxGeometry x="339" y="570" width="30" height="30" as="geometry" />
        </mxCell>
        <mxCell id="GygckmwgSlFkmuyGbdj2-36" value="3" style="ellipse;whiteSpace=wrap;html=1;aspect=fixed;fontStyle=1;fontSize=16;fillColor=#f5f5f5;fontColor=#333333;strokeColor=#666666;" vertex="1" parent="1">
          <mxGeometry x="270" y="560" width="30" height="30" as="geometry" />
        </mxCell>
        <mxCell id="GygckmwgSlFkmuyGbdj2-37" value="4" style="ellipse;whiteSpace=wrap;html=1;aspect=fixed;fontStyle=1;fontSize=16;fillColor=#f5f5f5;fontColor=#333333;strokeColor=#666666;" vertex="1" parent="1">
          <mxGeometry x="441" y="670" width="30" height="30" as="geometry" />
        </mxCell>
        <mxCell id="GygckmwgSlFkmuyGbdj2-38" value="5" style="ellipse;whiteSpace=wrap;html=1;aspect=fixed;fontStyle=1;fontSize=16;fillColor=#fff2cc;strokeColor=#d6b656;" vertex="1" parent="1">
          <mxGeometry x="373" y="640" width="30" height="30" as="geometry" />
        </mxCell>
        <mxCell id="GygckmwgSlFkmuyGbdj2-39" value="&lt;b&gt;12V&lt;/b&gt;" style="text;html=1;strokeColor=none;fillColor=none;align=center;verticalAlign=middle;whiteSpace=wrap;rounded=0;" vertex="1" parent="1">
          <mxGeometry x="395.5" y="555" width="60" height="30" as="geometry" />
        </mxCell>
        <mxCell id="GygckmwgSlFkmuyGbdj2-40" value="&lt;b&gt;12V&lt;/b&gt;" style="text;html=1;strokeColor=none;fillColor=none;align=center;verticalAlign=middle;whiteSpace=wrap;rounded=0;" vertex="1" parent="1">
          <mxGeometry x="324" y="540" width="60" height="30" as="geometry" />
        </mxCell>
        <mxCell id="GygckmwgSlFkmuyGbdj2-41" value="&lt;b&gt;GND&lt;/b&gt;" style="text;html=1;strokeColor=none;fillColor=none;align=center;verticalAlign=middle;whiteSpace=wrap;rounded=0;" vertex="1" parent="1">
          <mxGeometry x="255" y="530" width="60" height="30" as="geometry" />
        </mxCell>
        <mxCell id="GygckmwgSlFkmuyGbdj2-42" value="&lt;b&gt;GND&lt;/b&gt;" style="text;html=1;strokeColor=none;fillColor=none;align=center;verticalAlign=middle;whiteSpace=wrap;rounded=0;" vertex="1" parent="1">
          <mxGeometry x="426" y="640" width="60" height="30" as="geometry" />
        </mxCell>
        <mxCell id="GygckmwgSlFkmuyGbdj2-43" value="&lt;b&gt;Fuse +&lt;/b&gt;" style="text;html=1;strokeColor=none;fillColor=none;align=center;verticalAlign=middle;whiteSpace=wrap;rounded=0;" vertex="1" parent="1">
          <mxGeometry x="358" y="610" width="60" height="30" as="geometry" />
        </mxCell>
        <mxCell id="GygckmwgSlFkmuyGbdj2-44" value="&lt;b&gt;Fuse -&lt;/b&gt;" style="text;html=1;strokeColor=none;fillColor=none;align=center;verticalAlign=middle;whiteSpace=wrap;rounded=0;" vertex="1" parent="1">
          <mxGeometry x="291" y="620" width="60" height="30" as="geometry" />
        </mxCell>
        <mxCell id="GygckmwgSlFkmuyGbdj2-45" value="&lt;b&gt;CAN H&lt;/b&gt;" style="text;html=1;strokeColor=none;fillColor=none;align=center;verticalAlign=middle;whiteSpace=wrap;rounded=0;" vertex="1" parent="1">
          <mxGeometry x="207" y="600" width="60" height="30" as="geometry" />
        </mxCell>
        <mxCell id="GygckmwgSlFkmuyGbdj2-46" value="&lt;b&gt;CAN H&lt;/b&gt;" style="text;html=1;strokeColor=none;fillColor=none;align=center;verticalAlign=middle;whiteSpace=wrap;rounded=0;" vertex="1" parent="1">
          <mxGeometry x="387" y="700" width="60" height="30" as="geometry" />
        </mxCell>
        <mxCell id="GygckmwgSlFkmuyGbdj2-47" value="&lt;b&gt;CAN L&lt;/b&gt;" style="text;html=1;strokeColor=none;fillColor=none;align=center;verticalAlign=middle;whiteSpace=wrap;rounded=0;" vertex="1" parent="1">
          <mxGeometry x="316" y="720" width="60" height="30" as="geometry" />
        </mxCell>
        <mxCell id="GygckmwgSlFkmuyGbdj2-48" value="&lt;b&gt;CAN L&lt;/b&gt;" style="text;html=1;strokeColor=none;fillColor=none;align=center;verticalAlign=middle;whiteSpace=wrap;rounded=0;" vertex="1" parent="1">
          <mxGeometry x="232" y="680" width="60" height="30" as="geometry" />
        </mxCell>
        <mxCell id="GygckmwgSlFkmuyGbdj2-49" value="&lt;b&gt;Connecteur femelle / côté soudure&lt;/b&gt;" style="text;html=1;strokeColor=none;fillColor=none;align=center;verticalAlign=middle;whiteSpace=wrap;rounded=0;" vertex="1" parent="1">
          <mxGeometry x="242.5" y="480" width="205" height="30" as="geometry" />
        </mxCell>
      </root>
    </mxGraphModel>
  </diagram>
</mxfile>
